<svg width="513" height="513" viewBox="0 0 513 513" fill="none" xmlns="http://www.w3.org/2000/svg">
<g clip-path="url(#clip0)">
<path d="M226.31 59.4289C226.311 59.4306 226.313 59.4324 226.315 59.4341L452.578 285.697C461.153 294.272 461.153 308.228 452.578 316.803L316.82 452.561C316.817 452.564 316.813 452.568 316.809 452.571C312.512 456.841 306.889 458.994 301.249 458.994C295.581 458.994 289.972 456.855 285.696 452.579L59.424 226.307C50.8492 217.732 50.8492 203.776 59.424 195.201L195.191 59.4341C195.193 59.4322 195.195 59.4302 195.197 59.4283C203.804 50.8491 217.702 50.8493 226.31 59.4289Z" stroke="black" stroke-width="20"/>
<path d="M159.681 488.034C159.617 487.65 159.745 487.266 159.681 486.85L143.681 412.61C141.793 403.97 133.217 398.466 124.641 400.354C116.001 402.21 110.529 410.722 112.353 419.362L120.673 457.986C65.377 419.65 32.001 357.282 32.001 288.002C32.001 279.17 24.833 272.002 16.001 272.002C7.16898 272.002 0.000976562 279.17 0.000976562 288.002C0.000976562 364.034 35.009 432.578 93.249 477.25L47.041 480.034C38.241 480.578 31.521 488.13 32.033 496.962C32.545 505.442 39.585 512.002 48.001 512.002C48.321 512.002 48.641 512.002 48.961 511.97L144.961 506.21C145.121 506.21 145.249 506.114 145.441 506.082C146.081 506.018 146.753 506.018 147.393 505.89C148.065 505.73 148.577 505.314 149.217 505.09C150.145 504.77 151.073 504.482 151.905 504.002C152.193 503.842 152.449 503.746 152.737 503.554C153.409 503.106 153.921 502.53 154.529 501.986C155.297 501.282 156.001 500.61 156.641 499.778C157.153 499.106 157.601 498.402 157.985 497.634C158.113 497.378 158.401 497.314 158.497 497.058C158.625 496.802 158.593 496.546 158.689 496.29C158.945 495.682 159.105 495.042 159.297 494.402C159.521 493.602 159.649 492.834 159.745 492.034C159.777 491.362 159.873 490.722 159.873 490.05C159.873 489.794 160.001 489.57 159.969 489.282C159.937 488.834 159.713 488.482 159.681 488.034Z" fill="black"/>
<path d="M418.753 34.754L464.961 31.97C473.761 31.426 480.481 23.874 479.969 15.042C479.457 6.24201 472.833 -0.541986 463.041 0.0340138L367.041 5.79401C366.625 5.82601 366.273 6.05001 365.857 6.11401C365.441 6.17801 365.057 6.05001 364.641 6.11401C364.289 6.17801 364.033 6.43401 363.681 6.53001C363.041 6.72201 362.433 6.91401 361.825 7.17001C361.153 7.45801 360.545 7.81001 359.905 8.19401C359.297 8.54601 358.721 8.89801 358.145 9.34601C357.665 9.73001 357.217 10.114 356.769 10.562C356.257 11.074 355.841 11.618 355.393 12.194C354.913 12.802 354.529 13.41 354.145 14.082C353.985 14.402 353.665 14.594 353.537 14.914C353.409 15.17 353.441 15.426 353.345 15.682C353.089 16.29 352.929 16.93 352.737 17.57C352.513 18.37 352.385 19.138 352.289 19.97C352.225 20.642 352.129 21.282 352.129 21.954C352.129 22.21 352.001 22.466 352.033 22.722C352.065 23.138 352.289 23.49 352.321 23.874C352.385 24.29 352.257 24.706 352.321 25.122L368.321 99.362C369.985 106.882 376.609 112.002 383.969 112.002C385.089 112.002 386.241 111.906 387.361 111.65C396.001 109.794 401.473 101.282 399.649 92.642L391.329 53.986C446.625 92.354 480.001 154.722 480.001 224.002C480.001 232.834 487.169 240.002 496.001 240.002C504.833 240.002 512.001 232.834 512.001 224.002C512.001 147.97 476.993 79.426 418.753 34.754Z" fill="black"/>
</g>
<defs>
<clipPath id="clip0">
<rect width="512.002" height="512.002" fill="white"/>
</clipPath>
</defs>
</svg>
