<svg width="175" height="91" viewBox="0 0 175 91" fill="none" xmlns="http://www.w3.org/2000/svg">
<path opacity="0.91" d="M1.36011 16.89C1.45011 16.48 1.53011 16.09 1.63011 15.7C1.75011 15.32 1.88011 14.93 2.02011 14.51C1.50011 15.84 1.21011 17.16 1.13011 18.31C1.04011 19.46 1.11011 20.4 1.15011 21.23C1.16011 22.42 1.00011 20.51 1.13011 23.75C1.30011 28.35 1.22011 22.69 1.32011 25.45L1.30011 27.6C1.47011 31.07 1.49011 33.82 1.56011 36.85C1.59011 37.52 1.60011 37.84 1.62011 38C1.68011 41.25 1.89011 44.61 1.93011 47.08C1.90011 46.53 1.92011 48.54 1.90011 48.86L2.07011 53.17C2.00011 51.26 1.95011 51.41 1.90011 51.12C1.95011 52.48 1.98011 53.09 2.01011 54.01C1.98011 53.46 1.95011 52.92 1.94011 53.67L2.13011 58.17C2.13011 57.89 2.12011 57.35 2.11011 56.91C2.14011 58.06 2.23011 60.51 2.23011 62.21C2.22011 62.08 2.17011 61.54 2.15011 61.42C2.17011 59.97 2.10011 59.24 2.05011 58.57C2.14011 61.74 2.06011 59.38 2.06011 60.95C2.12011 63.19 2.20011 64.03 2.23011 63.39C2.25011 64.67 2.27011 65.52 2.28011 66.36C2.30011 67.19 2.31011 68.12 2.44011 69.09L2.35011 68.75C2.37011 69.4 2.53011 70.04 2.64011 70.67C2.54011 70.18 2.37011 69.69 2.32011 69.18C2.56011 71.08 2.72011 71.2 2.79011 71.39C2.90011 71.56 2.87011 71.85 3.75011 73.76L3.72011 73.84C4.47011 75.25 4.88011 75.54 5.62011 76.6C6.66011 77.7 3.92011 74.5 6.32011 77.19C6.74011 77.7 7.81011 78.6 8.68011 79.17C9.18011 79.44 8.98011 79.31 8.59011 79.07C8.23011 78.78 7.64011 78.4 7.37011 78.16C9.52011 79.8 10.4101 80.02 11.1101 80.39C11.4901 80.52 11.8201 80.72 12.3901 80.84C12.6701 80.9 13.0001 81 13.4001 81.07C13.8101 81.1 14.2901 81.21 14.8901 81.22C14.0501 81.15 14.3801 81.12 14.4201 81.12C14.4401 81.11 14.4001 81.1 14.1101 81.05C13.8201 81.01 13.2801 80.96 12.3401 80.71C14.1501 81.17 15.8001 81.25 18.3601 81.11L16.8601 81.21C17.7401 81.19 18.6801 81.15 19.1401 81.13L19.0001 81.19C21.8801 81.03 24.6101 81.12 26.2401 80.95C25.1201 81.08 28.4601 80.9 29.6801 80.91C27.3201 81.04 22.6501 81.06 22.4201 81.16C23.6001 81.14 24.5701 81.12 25.7001 81.1C24.9501 81.13 23.8501 81.18 23.5801 81.2C27.4201 81.17 29.4401 81.01 31.7001 80.94L27.6901 81.05C27.9001 80.95 29.4801 80.99 30.5301 80.9C32.6101 80.9 34.1101 80.8 35.7801 80.79C35.3401 80.8 35.3301 80.8 34.8901 80.82C39.2701 80.72 40.6901 80.83 42.4401 80.79C44.1701 80.76 47.3401 80.62 46.1101 80.62C47.4701 80.56 40.3301 80.8 42.6701 80.61C45.3601 80.69 47.7301 80.43 53.2901 80.37C50.9801 80.48 54.8101 80.41 52.7401 80.5C55.3401 80.42 55.4601 80.4 56.5801 80.34L57.4201 80.37C60.7601 80.21 58.1401 80.27 63.3001 80.12C61.5901 80.18 65.4501 80.15 64.1501 80.2C65.5901 80.18 66.9901 80.14 68.0201 80.1L67.8401 80.11C73.0901 80 72.2001 80.09 76.9501 79.96L76.4501 79.94C82.6701 79.76 90.6501 79.68 97.1301 79.54L94.8201 79.55C95.5301 79.55 99.1701 79.44 101.23 79.45C100.82 79.46 100.14 79.48 99.7601 79.48C99.8401 79.51 100.66 79.54 102.23 79.52L102.8 79.46L103.46 79.49C105.85 79.45 102.71 79.44 105.09 79.4C106.59 79.51 115.37 79.26 117.52 79.34C119.07 79.22 113 79.4 114.7 79.28C115.44 79.28 115.78 79.28 117.33 79.28L116.75 79.23C123.99 79.15 126.78 79.12 133.2 79.05L133 79.09C135.31 79.08 136.53 79.05 137.52 78.99C138.02 79.01 136.37 79.05 137.28 79.06C141.21 78.86 145.42 79.05 147.82 78.92C147.58 79.04 152.91 79.08 150.77 79.2L152.4 79.17C151.9 79.25 147.23 79.23 146.34 79.32L141.08 79.31C141.26 79.34 140.44 79.39 141.28 79.39C140 79.41 138.87 79.43 140.59 79.45C128.01 79.43 115.37 79.82 103.06 79.91C102.24 79.93 102.73 79.95 103.07 79.96C100.75 79.92 100.94 80.03 99.7201 80.06L96.3201 80C95.0101 80.05 96.0801 80.07 96.0101 80.09C89.7801 80.21 83.6101 80.21 78.6101 80.35C76.9701 80.34 78.9201 80.26 76.7901 80.28C79.7601 80.34 70.6501 80.43 72.5501 80.48C70.3901 80.4 64.9001 80.59 65.6801 80.41C63.1301 80.45 63.6401 80.51 64.3801 80.51C61.4301 80.56 59.0501 80.6 56.7201 80.69C56.3001 80.7 55.2901 80.71 53.9801 80.74C52.6101 80.78 50.9201 80.83 49.1801 80.88C45.7101 80.97 42.1001 81.05 40.7201 81.03C42.6001 81.06 40.6401 81.07 38.9701 81.15L40.6001 81.18L36.7201 81.27C35.9401 81.29 35.7101 81.29 35.7101 81.29C35.0501 81.3 35.8201 81.25 34.1301 81.27C31.4901 81.33 31.4101 81.37 30.0001 81.43H30.4101L28.6301 81.48C27.3201 81.51 33.2001 81.31 28.8701 81.37C28.8601 81.37 28.7001 81.39 28.4501 81.4C28.2001 81.41 27.8501 81.43 27.4701 81.45C26.7101 81.49 25.8001 81.52 25.1901 81.5C27.3901 81.46 27.0601 81.42 26.2301 81.41L23.1501 81.47L24.2701 81.53C22.0601 81.57 19.8301 81.61 17.5801 81.66L15.9001 81.7C15.4301 81.68 14.9601 81.68 14.4901 81.65C14.0301 81.58 13.5501 81.54 13.0901 81.45C12.6301 81.33 12.1601 81.25 11.7101 81.1C8.06011 79.98 4.84011 77.2 3.16011 73.6C3.17011 73.6 3.13011 73.53 3.09011 73.38C3.04011 73.24 2.96011 73.04 2.87011 72.8C2.66011 72.31 2.50011 71.65 2.31011 71C2.19011 70.35 2.05011 69.71 2.03011 69.26C2.00011 68.82 2.00011 68.58 2.04011 68.73L2.05011 69.05C2.08011 69.54 2.15011 69.73 2.15011 69.73C2.17011 69.73 2.12011 69.55 2.12011 69.24C2.10011 68.94 2.08011 68.53 2.05011 68.1C2.04011 67.59 2.03011 67.05 2.02011 66.59C2.03011 68.6 1.83011 63.22 1.92011 68L1.78011 64.39C1.52011 62.62 1.56011 54.58 1.34011 49.13C1.36011 49.51 1.37011 49.6 1.38011 49.63C1.18011 44.8 1.14011 38.5 1.07011 37.42L1.12011 36.89C0.910108 32.81 0.890108 32.33 0.780108 27.27C0.790108 27.31 0.820108 27.87 0.810108 27.06C0.730108 25.92 0.650108 24.78 0.560108 21.33L0.580108 21.45C0.570108 21.01 0.540108 20.55 0.550108 20.12L0.570108 18.86C0.650108 18.03 0.720108 17.18 0.930108 16.37C1.03011 16.28 1.46011 14.18 2.62011 12.13C3.17011 11.09 3.92011 10.11 4.62011 9.32C5.34011 8.56 6.00011 7.97 6.40011 7.74C6.74011 7.4 7.67011 6.67 8.78011 6.06C9.34011 5.75 9.92011 5.44 10.4901 5.23C10.7701 5.12 11.0301 5 11.2801 4.91C11.5301 4.83 11.7701 4.76 11.9701 4.7C11.9901 4.7 12.1101 4.68 12.3901 4.6C12.8301 4.42 13.4301 4.35 14.0901 4.21C14.7601 4.11 15.5001 4.07 16.2701 4.04C17.8201 4.01 19.4101 3.98 20.5401 3.96C22.0001 3.89 21.3101 3.88 20.6101 3.87C23.6701 3.86 28.6401 3.56 29.7701 3.56C31.9501 3.51 30.6801 3.61 31.3301 3.63C34.5301 3.52 30.5601 3.48 34.9901 3.44C34.5001 3.46 33.5801 3.49 33.9501 3.49C35.6301 3.46 38.8701 3.59 40.4601 3.5H39.3301C42.2801 3.38 46.6701 3.47 46.9901 3.33L46.6301 3.28C51.9301 3.19 48.8201 3.24 54.1901 3.15L54.1301 3.16C56.4301 3.1 57.7501 3.14 58.7701 3.02L57.9601 3.03C60.8001 2.97 61.0601 2.96 63.9601 2.89C64.2901 2.87 65.6701 2.82 66.1001 2.83C66.1001 2.82 66.2101 2.81 66.4001 2.8C66.5901 2.79 66.8501 2.78 67.1801 2.77C67.8301 2.75 68.7001 2.72 69.6101 2.7C71.4301 2.66 73.4101 2.61 74.0601 2.59C71.7901 2.67 72.9201 2.67 73.6101 2.68C74.8601 2.58 75.7801 2.55 77.7101 2.54C77.8301 2.44 78.0501 2.33 81.6901 2.21C81.1401 2.24 80.2701 2.28 80.6701 2.28C81.0701 2.29 81.8901 2.24 82.1601 2.22C82.5601 2.23 81.4101 2.28 81.8701 2.3C84.2001 2.14 86.1401 2.16 89.6501 2.02C88.5601 2.08 89.5701 2.07 90.0401 2.09C90.1301 1.98 95.0901 2.02 93.5001 1.93C100.64 1.78 111.27 1.34 114.16 1.33C114.96 1.34 116.8 1.22 118.02 1.17L117.93 1.22C121.2 1.05 120.53 1.08 124.39 0.88C122.83 0.99 123.57 0.99 125.32 0.98L127.91 0.79L128.57 0.84C129.65 0.77 130.93 0.74 132.22 0.71C131.61 0.73 131.96 0.73 132.02 0.74C132.46 0.62 137.42 0.47 138.11 0.4C139.51 0.46 141.39 0.27 142.45 0.33C142.83 0.31 143.34 0.28 143.9 0.25C143.23 0.23 142.94 0.19 144.09 0.17C144.18 0.17 144.26 0.16 144.35 0.16L144.93 0.2C146.05 0.16 147.21 0.12 147.97 0.09C147.62 0.09 147.2 0.09 146.77 0.1C147.27 0.1 147.74 0.09 148.19 0.09C148.35 0.09 148.5 0.08 148.61 0.08C148.54 0.08 148.46 0.09 148.36 0.09C149.08 0.08 149.81 0.07 150.78 0.02C151.3 0.01 151.82 0 152.35 0C153 0.02 153.66 0.03 154.32 0.05C154.99 0.1 155.66 0.2 156.34 0.29C157.02 0.41 157.69 0.58 158.37 0.73C161.07 1.46 163.7 2.83 165.86 4.73C165.23 4.15 164.24 3.5 164.01 3.34C167.94 5.86 170.63 10.02 171.68 12.72L171.63 12.43C172.29 14.01 172.75 15.48 172.99 16.91C173.12 17.62 173.23 18.32 173.26 19.02L173.33 20.06C173.35 20.41 173.34 20.63 173.35 20.92L173.41 20.98C173.45 24.21 173.67 31 173.58 33.1C173.64 33.84 173.64 37.55 173.69 39.37L173.65 39.87C173.7 42.26 173.73 43.72 173.75 45.13C173.73 50.05 173.9 54.45 173.95 58.69L173.94 58.74L174.03 63.01C173.97 61.92 174.07 63.83 174.08 65.13C174.09 65.81 174.11 66.7 174.13 67.62C174.15 68.01 174.11 68.73 174.08 69.31C174.06 69.91 174.01 70.49 173.92 71.01C173.79 72.21 173.5 73.38 173.19 74.55C174.1 70.68 173.1 74.9 172.86 75.12C172.62 75.83 172.4 76.55 172.08 77.23C171.65 78.08 172.64 75.91 171.92 77.45C171.63 78.15 170.92 79.49 170.07 80.72C169.24 81.97 168.22 83.05 167.78 83.57C167.96 83.41 168.35 82.99 168.82 82.48C168.94 82.34 168.93 82.35 168.86 82.44C168.9 82.4 168.92 82.37 168.97 82.32C168.92 82.38 168.89 82.41 168.84 82.47C168.72 82.61 168.53 82.84 168.45 82.94C167.98 83.49 167.63 83.81 167.41 84.01C167.19 84.22 167.1 84.31 167.07 84.34C167.02 84.4 167.25 84.2 167.31 84.16C166.99 84.44 166.7 84.7 166.41 84.95C166.11 85.18 165.83 85.39 165.56 85.6C165.02 86.02 164.52 86.38 164 86.68C163 87.33 162.01 87.82 160.8 88.32C162.42 87.61 160.75 88.49 158.79 89.13C156.83 89.76 154.61 90.01 155.73 89.9C154.46 90.09 154.04 90.06 153.73 90.09C153.42 90.11 153.22 90.13 152.39 90.13C155.89 90.11 159.19 89.08 161.61 87.86C160.79 88.28 159.9 88.55 159.03 88.87C159.41 88.7 159.96 88.49 160.59 88.24C161.22 87.99 161.89 87.63 162.57 87.3C163.24 86.94 163.87 86.53 164.44 86.19C164.99 85.82 165.43 85.46 165.74 85.21C164.96 85.93 162.84 87.2 162.74 87.22L163.47 86.86C166.81 84.83 168.82 82.5 170.28 80.27C169.51 81.31 169.96 80.7 170.42 79.98C170.85 79.24 171.3 78.43 170.8 79.24L170.29 80.11L169.71 80.93C169.11 81.67 170.3 80.14 170.8 79.15C171.65 77.79 172.43 76.01 173 74.06C173.58 72.12 173.79 69.95 173.8 68C173.76 64.93 173.72 62.25 173.74 61.36C173.74 62.37 173.78 64.2 173.81 65.05V62.74C173.81 63.67 173.82 64.51 173.82 65.47C173.82 65.95 173.82 66.45 173.83 67.01C173.83 67.29 173.84 67.58 173.84 67.88C173.85 68.16 173.82 68.67 173.81 69.08C173.88 68.43 173.85 70.97 174.01 68.19C174.02 62.82 173.83 63.94 173.76 57.58C173.74 57 173.85 58.84 173.78 55.49C173.73 53.39 173.66 51.58 173.59 50.31C173.52 49.04 173.46 48.31 173.41 48.36C173.47 50.12 173.58 53.63 173.52 54.24C173.46 52.48 173.4 49.42 173.35 49.31C173.41 47.4 173.43 52.65 173.46 50.17C173.44 48.92 173.4 48.41 173.38 47.84C173.43 48.64 173.42 46.67 173.43 46.28C173.38 42.23 173.35 39.87 173.29 35.52C173.3 35.28 173.32 34.78 173.34 34.89C173.28 32.79 173.1 29.89 173.06 30.72C173.01 28.25 173.05 28.07 172.99 25.99C172.98 29.43 172.99 25.31 172.9 25.03C172.85 22.88 172.92 24.23 172.92 23.23C172.9 22.88 172.86 22.04 172.84 22.01C172.87 20.62 173.05 24.42 173.09 22.78C173.09 22.5 173.1 21.99 173.1 21.39C173.1 21.09 173.1 20.76 173.1 20.42C173.1 20.09 173.07 19.59 173.05 19.18C173.03 18.32 172.91 17.5 172.8 16.87C172.71 16.24 172.61 15.8 172.58 15.7C172.39 15.12 172.27 15.04 172.26 15.34C172.25 15.49 172.27 15.74 172.32 16.07C172.35 16.41 172.38 16.83 172.45 17.34C172.4 17.27 172.34 16.63 172.18 15.88C171.99 15.13 171.81 14.25 171.57 13.71C171.28 12.89 171.02 12.19 170.69 11.6C170.39 10.99 170.1 10.46 169.76 9.97C169.13 8.98 168.45 8.11 167.54 7.07C168.03 7.54 168.43 8.1 168.87 8.62C168.72 8.43 168.07 7.49 167.25 6.7C166.49 5.85 165.55 5.16 165.33 4.96C165.24 4.84 166.85 6.1 165.88 5.21C163.99 3.55 161.86 2.45 160.3 1.86C158.71 1.3 157.74 1.12 157.94 1.23C160.31 1.84 162.58 2.9 164.59 4.35C164.71 4.5 163.67 3.69 162.51 3.09C161.38 2.44 160.16 2.01 160.35 2.12C158.22 1.24 155.94 0.73 153.66 0.63C154.53 0.59 157.11 1.02 156.03 0.81C154.57 0.6 154.18 0.58 153.91 0.57C153.64 0.55 153.48 0.53 152.48 0.5C154.09 0.44 156.38 0.57 158.49 1.11C160.59 1.65 162.44 2.54 163.37 3.07C162.34 2.45 161.25 1.94 160.13 1.5L159.22 1.14C156.98 0.44 154.84 0.19 153.18 0.3C152.3 0.31 151.79 0.39 151.29 0.43C150.81 0.48 150.45 0.52 150.22 0.54C147.99 0.59 148.55 0.43 149.03 0.38C144.67 0.5 145.05 0.7 140.67 0.82L142.36 0.8C141.35 0.85 137.57 0.93 138.01 0.95C137.08 0.94 136.14 0.88 137.07 0.83L133.44 1.09C133.98 1.06 133.42 0.96 133.63 0.93C132.07 0.98 131.22 1.14 132.22 1.13C129.06 1.15 129.89 1.17 127.27 1.16C126.39 1.2 127.56 1.28 128.23 1.27C126.27 1.37 125.06 1.39 124.08 1.41C127.33 1.25 124.55 1.13 125.02 1.02L118.45 1.59C118.65 1.56 119.03 1.44 118.97 1.43C118.55 1.55 110.36 1.84 106.31 1.97L106.92 1.95C107.67 1.89 104.16 1.98 102.8 2.06C103 2.03 103.34 2.03 103.95 2.01C101.13 2.03 100.73 2.28 97.8301 2.28C100.33 2.21 100.75 2.15 100.56 2.12C98.5801 2.22 93.7901 2.34 94.9901 2.42C93.6401 2.44 92.4801 2.49 92.4901 2.43L87.5901 2.66C87.9401 2.64 88.2101 2.59 86.7201 2.63C89.5701 2.56 92.1001 2.36 93.7201 2.39C93.6701 2.32 92.5501 2.31 93.7901 2.21C88.4301 2.42 85.6601 2.64 82.3601 2.82C80.7301 2.85 79.1101 2.88 77.4701 2.91L77.3201 2.95L76.3601 2.89C75.7801 2.93 75.4301 2.95 75.2901 2.95C75.1701 2.95 75.3001 2.93 75.5201 2.91C75.0201 2.93 74.5701 2.95 74.3501 2.97C74.0901 2.93 74.8701 2.86 75.7101 2.79C76.1701 2.79 76.6401 2.8 77.1001 2.8C77.9801 2.73 78.5901 2.67 77.2401 2.68C77.0601 2.69 76.8301 2.7 76.5901 2.72C77.1401 2.67 77.4701 2.64 77.0101 2.64L73.4101 2.79C73.8401 2.79 74.5001 2.8 75.2701 2.8C73.0501 2.92 70.5201 3.06 72.6601 3.06C71.7001 3.07 70.7401 3.08 69.7901 3.09C66.5901 3.26 67.1601 3.23 63.2001 3.39C62.9401 3.37 63.9801 3.32 63.2301 3.31C60.4001 3.47 55.9001 3.37 55.3701 3.47C53.0301 3.55 54.4701 3.57 53.0001 3.62C53.0601 3.61 53.1701 3.59 52.7401 3.6L51.0301 3.7C50.2801 3.69 52.6201 3.62 50.5801 3.64C47.1901 3.76 45.2201 3.85 42.3101 3.89C38.2501 4.01 44.2101 3.96 40.7601 4.04C40.1801 4 39.6601 3.96 37.5001 4.01C36.4101 4.07 36.6201 4.11 34.7201 4.18L34.7301 4.1C32.9401 4.15 31.5401 4.2 31.4501 4.15C30.0101 4.17 29.0001 4.19 28.2201 4.2C25.5701 4.32 30.4401 4.3 31.1101 4.31C28.3701 4.33 26.5801 4.41 24.9301 4.36L27.2501 4.27C22.0901 4.32 22.6501 4.51 20.0901 4.42C21.8201 4.38 23.8301 4.28 22.7501 4.27L20.3001 4.38C19.9801 4.37 21.7101 4.32 20.5301 4.34C19.8401 4.38 18.4501 4.46 17.8501 4.5H17.8801C16.3601 4.56 14.9201 4.55 13.5501 4.86C14.3501 4.71 14.5101 4.66 13.7001 4.8C12.8001 4.95 11.9301 5.24 11.0801 5.55C11.8401 5.23 10.9801 5.53 9.82011 6.02C9.00011 6.42 8.46011 6.71 8.09011 6.99C7.72011 7.26 7.46011 7.42 7.26011 7.61C6.86011 8.01 6.46011 8.26 5.43011 9.25C5.72011 8.96 5.75011 8.93 6.04011 8.65C5.70011 8.99 5.31011 9.29 4.99011 9.66C5.04011 9.75 3.60011 11.25 2.72011 13.11C2.52011 13.58 2.31011 14.04 2.12011 14.48C1.97011 14.93 1.84011 15.36 1.72011 15.72C1.55011 16.46 1.47011 16.97 1.50011 17C1.19011 19 1.27011 17.15 1.98011 14.82L1.62011 15.84L1.36011 16.89ZM28.1501 4.2C26.9801 4.21 26.3601 4.2 25.6901 4.28C26.2301 4.3 27.5001 4.23 28.1501 4.2ZM80.4901 2.71C79.6801 2.73 78.9701 2.75 78.3401 2.76C79.2501 2.76 80.0301 2.74 80.4901 2.71ZM174.08 68.31C174.1 67.67 174.08 67.36 174.09 67.25C174.09 67.33 174.09 67.45 174.08 68.21C174.08 68.25 174.08 68.28 174.08 68.31ZM173.67 72.43C173.84 71.22 173.92 70.68 173.97 70.38C173.82 71.42 173.7 72.35 173.65 72.61C173.61 72.79 173.59 72.82 173.67 72.43ZM36.0301 81.26C36.3901 81.23 36.7501 81.21 35.4001 81.26H36.0301Z" fill="#F9F9F9"/>
</svg>
