<?xml version="1.0" encoding="utf-8"?>
<!-- Generator: Adobe Illustrator 24.0.0, SVG Export Plug-In . SVG Version: 6.00 Build 0)  -->
<svg version="1.1" id="Layer_1" xmlns="http://www.w3.org/2000/svg" xmlns:xlink="http://www.w3.org/1999/xlink" x="0px" y="0px"
	 viewBox="0 0 236 105.4" style="enable-background:new 0 0 236 105.4;" xml:space="preserve">
<style type="text/css">
	.st0{fill:none;stroke:#E51B22;stroke-width:3;}
	.st1{fill:#FFFFFF;}
</style>
<path class="st0" d="M0,5.6h235.5"/>
<path class="st0" d="M0,1.9h235.5"/>
<path class="st0" d="M155.7,95.6h79.8"/>
<path class="st0" d="M155.7,99.4h79.8"/>
<path class="st0" d="M0,95.6h79.8"/>
<path class="st0" d="M0,99.4h79.8"/>
<path class="st1" d="M2.3,22.3v-1.9c0-0.2,0.1-0.3,0.3-0.3h29.2c0.2,0,0.3,0.1,0.3,0.3v1.9c0,0.2-0.1,0.3-0.3,0.3H2.6
	C2.4,22.6,2.3,22.6,2.3,22.3z M13.3,74.8V27.3H2.6c-0.2,0-0.3-0.1-0.3-0.3v-1.9c0-0.2,0.1-0.3,0.3-0.3H16v49.9
	c0,0.2-0.1,0.3-0.3,0.3h-2.1C13.4,75,13.3,75,13.3,74.8z M18.3,74.8V24.9h13.4c0.2,0,0.3,0.1,0.3,0.3v1.9c0,0.2-0.1,0.3-0.3,0.3
	H21.1v47.4c0,0.2-0.1,0.3-0.3,0.3h-2.1C18.5,75,18.3,75,18.3,74.8z"/>
<path class="st1" d="M37.2,74.8V20.4c0-0.2,0.1-0.3,0.3-0.3h2.1c0.2,0,0.3,0.1,0.3,0.3v54.3c0,0.2-0.1,0.3-0.3,0.3h-2.1
	C37.3,75,37.2,75,37.2,74.8z M60.6,20.2c0.2,0,0.3,0.1,0.3,0.3v25.7H42.3V20.4c0-0.2,0.1-0.3,0.3-0.3h2.1c0.2,0,0.3,0.1,0.3,0.3
	v23.1h13.2V20.4c0-0.2,0.1-0.3,0.3-0.3L60.6,20.2L60.6,20.2z M42.6,75c-0.2,0-0.3-0.1-0.3-0.3V48.4H61v26.3c0,0.2-0.1,0.3-0.3,0.3
	h-2.1c-0.2,0-0.3-0.1-0.3-0.3V51H45v23.8c0,0.2-0.1,0.3-0.3,0.3H42.6z M63.7,75c-0.2,0-0.3-0.1-0.3-0.3V20.4c0-0.2,0.1-0.3,0.3-0.3
	h2.1c0.2,0,0.3,0.1,0.3,0.3v54.3c0,0.2-0.1,0.3-0.3,0.3L63.7,75L63.7,75z"/>
<path class="st1" d="M74.2,74.8V20.4c0-0.2,0.1-0.3,0.3-0.3h23.5c0.2,0,0.3,0.1,0.3,0.3v1.9c0,0.2-0.1,0.3-0.3,0.3H77.3
	c-0.2,0-0.3,0.1-0.3,0.3v49.3c0,0.2,0.1,0.3,0.3,0.3h20.8c0.2,0,0.3,0.1,0.3,0.3v1.9c0,0.2-0.1,0.3-0.3,0.3H74.6
	C74.3,75,74.2,75,74.2,74.8z M79.3,24.9H98c0.2,0,0.3,0.1,0.3,0.3v1.9c0,0.2-0.1,0.3-0.3,0.3H82v16.3h13.7c0.2,0,0.3,0.1,0.3,0.3
	v1.9c0,0.2-0.1,0.3-0.3,0.3H79.3V24.9L79.3,24.9z M79.3,48.4h16.4c0.2,0,0.3,0.1,0.3,0.3v1.9c0,0.2-0.1,0.3-0.3,0.3H82v17h16
	c0.2,0,0.3,0.1,0.3,0.3v1.9c0,0.2-0.1,0.3-0.3,0.3H79.3V48.4L79.3,48.4z"/>
<path class="st1" d="M119.4,74.8V20.4c0-0.2,0.1-0.3,0.3-0.3h2.1c0.2,0,0.3,0.1,0.3,0.3v54.3c0,0.2-0.1,0.3-0.3,0.3h-2.1
	C119.6,75,119.4,75,119.4,74.8z M124.8,75c-0.2,0-0.3-0.1-0.3-0.3V20.4c0-0.2,0.1-0.3,0.3-0.3h2.1c0.2,0,0.3,0.1,0.3,0.3v54.3
	c0,0.2-0.1,0.3-0.3,0.3L124.8,75L124.8,75z"/>
<path class="st1" d="M134.9,61.2V34c0-9.8,4.7-14.7,14.5-14.7S164,24.3,164,34v5.4c0,0.2-0.1,0.3-0.3,0.3h-2.1
	c-0.2,0-0.3-0.1-0.3-0.3v-5.4c0-8.5-3.8-12.3-11.8-12.3c-8,0-11.8,3.8-11.8,12.3v27c0,8.5,3.8,12.3,11.8,12.3
	c8,0,11.8-3.8,11.8-12.3v-5.3c0-0.2,0.1-0.3,0.3-0.3h2.1c0.2,0,0.3,0.1,0.3,0.3v5.4c0,9.8-4.7,14.7-14.5,14.7
	C139.7,75.9,134.9,71,134.9,61.2z M140.1,61.1v-27c0-7.1,3-10.1,9.4-10.1s9.4,3,9.4,10.1v5.3c0,0.2-0.1,0.3-0.3,0.3h-2.1
	c-0.2,0-0.3-0.1-0.3-0.3v-5.7c0-5.1-2.2-7.3-6.7-7.3c-4.5,0-6.7,2.2-6.7,7.3v27.8c0,5.1,2.2,7.3,6.7,7.3c4.5,0,6.7-2.2,6.7-7.3v-5.7
	c0-0.2,0.1-0.3,0.3-0.3h2.1c0.2,0,0.3,0.1,0.3,0.3V61c0,7.1-3,10.1-9.4,10.1S140.1,68.2,140.1,61.1z"/>
<path class="st1" d="M170.2,61.2V34c0-9.8,4.7-14.7,14.5-14.7s14.5,4.9,14.5,14.7v27.2c0,9.8-4.7,14.7-14.5,14.7
	C175,75.9,170.2,71,170.2,61.2z M196.5,61.1v-27c0-8.5-3.8-12.3-11.8-12.3c-7.9,0-11.8,3.8-11.8,12.3v27c0,8.5,3.8,12.3,11.8,12.3
	C192.7,73.4,196.5,69.6,196.5,61.1z M175.4,61.1v-27c0-7.1,3-10.1,9.4-10.1c6.4,0,9.4,3,9.4,10.1v27c0,7.1-3,10.1-9.4,10.1
	C178.3,71.2,175.4,68.2,175.4,61.1z M191.4,61.5V33.7c0-5.1-2.2-7.3-6.7-7.3c-4.5,0-6.7,2.2-6.7,7.3v27.8c0,5.1,2.2,7.3,6.7,7.3
	C189.2,68.8,191.4,66.6,191.4,61.5z"/>
<path class="st1" d="M207,74.8V20.4c0-0.2,0.1-0.3,0.3-0.3h1.9c0.2,0,0.3,0.1,0.3,0.3v54.3c0,0.2-0.1,0.3-0.3,0.3h-1.9
	C207.1,75,207,75,207,74.8z M211.8,20.5c-0.1-0.3,0-0.4,0.2-0.4h2.2c0.2,0,0.3,0.1,0.3,0.3l13.8,35.2h0.1V20.4
	c0-0.2,0.1-0.3,0.3-0.3h1.9c0.2,0,0.3,0.1,0.3,0.3v47.9h-0.1L211.8,20.5z M211.9,74.8V26.9h0.1l19.1,47.8c0.1,0.3,0,0.4-0.2,0.4
	h-2.1c-0.2,0-0.3-0.1-0.5-0.4l-13.8-35.1h-0.1v35.2c0,0.2-0.1,0.3-0.3,0.3h-1.9C211.9,75,211.9,75,211.9,74.8z M233.3,74.8V20.4
	c0-0.2,0.1-0.3,0.3-0.3h1.9c0.2,0,0.3,0.1,0.3,0.3v54.3c0,0.2-0.1,0.3-0.3,0.3h-1.9C233.5,75,233.3,75,233.3,74.8z"/>
<path class="st1" d="M98.5,101v1c0,2.5-1.1,3.4-3.6,3.4c-2.5,0-3.6-1-3.6-3.4v-1.5c0,0,0-0.1,0.1-0.1h1.2c0,0,0.1,0,0.1,0.1v1.6
	c0,1.6,0.6,2.2,2.3,2.2c1.7,0,2.3-0.6,2.3-2.2v-0.9c0-1.4-0.4-2-2.1-2.7l-1.4-0.6c-1.7-0.7-2.4-1.6-2.4-3.2v-1
	c0-2.4,1.1-3.4,3.5-3.4c2.4,0,3.4,1,3.4,3.4v1.6c0,0,0,0.1-0.1,0.1h-1.2c0,0-0.1,0-0.1-0.1v-1.6c0-1.6-0.6-2.2-2.1-2.2
	c-1.6,0-2.2,0.6-2.2,2.2v0.8c0,1.1,0.5,1.6,2,2.3l1.3,0.6C97.8,98.3,98.5,99.1,98.5,101z M94.1,97.3c-1.6-0.7-2.2-1.3-2.2-2.8
	C91.9,96,92.5,96.6,94.1,97.3z"/>
<path class="st1" d="M107.5,90.6v1.1c0,0,0,0.1-0.1,0.1h-4.7v5.4h4.1c0,0,0.1,0,0.1,0.1v1.1c0,0,0,0.1-0.1,0.1h-4.1v5.6h4.7
	c0,0,0.1,0,0.1,0.1v1.1c0,0,0,0.1-0.1,0.1h-6c0,0-0.1,0-0.1-0.1V90.7c0-0.1,0-0.1,0.1-0.1H107.5C107.4,90.5,107.5,90.5,107.5,90.6z"
	/>
<path class="st1" d="M117.3,105.3H116c0,0-0.1,0-0.1-0.1l-0.8-5c-0.2-1.4-0.6-1.8-1.9-1.8h-1.9v6.8c0,0,0,0.1-0.1,0.1h-1.2
	c0,0-0.1,0-0.1-0.1V90.6c0,0,0-0.1,0.1-0.1h3.2c2.7,0,3.8,1.1,3.8,3.7v0.5c0,1.8-0.6,2.5-1.6,3.1c0.7,0.3,1,1.2,1.2,2.4l0.8,5
	C117.4,105.2,117.3,105.3,117.3,105.3z M113.5,97.1c1.5,0,2.2-0.7,2.2-2.3v-0.8c0-1.6-0.7-2.3-2.3-2.3h-2v5.4L113.5,97.1L113.5,97.1
	z"/>
<path class="st1" d="M121.4,90.6v14.6c0,0,0,0.1-0.1,0.1h-1.2c0,0-0.1,0-0.1-0.1V90.6c0,0,0-0.1,0.1-0.1L121.4,90.6
	C121.3,90.5,121.4,90.5,121.4,90.6z"/>
<path class="st1" d="M130.6,90.6v1.1c0,0,0,0.1-0.1,0.1h-4.7v5.4h4.1c0,0,0.1,0,0.1,0.1v1.1c0,0,0,0.1-0.1,0.1h-4.1v5.6h4.7
	c0,0,0.1,0,0.1,0.1v1.1c0,0,0,0.1-0.1,0.1h-6c0,0-0.1,0-0.1-0.1V90.7c0-0.1,0-0.1,0.1-0.1H130.6C130.6,90.5,130.6,90.5,130.6,90.6z"
	/>
<path class="st1" d="M140.1,101v1c0,2.5-1.1,3.4-3.6,3.4s-3.6-1-3.6-3.4v-1.5c0,0,0-0.1,0.1-0.1h1.2c0,0,0.1,0,0.1,0.1v1.6
	c0,1.6,0.6,2.2,2.3,2.2c1.7,0,2.3-0.6,2.3-2.2v-0.9c0-1.4-0.4-2-2.1-2.7l-1.4-0.6c-1.7-0.7-2.4-1.6-2.4-3.2v-1
	c0-2.4,1.1-3.4,3.5-3.4c2.4,0,3.4,1,3.4,3.4v1.6c0,0,0,0.1-0.1,0.1h-1.2c0,0-0.1,0-0.1-0.1v-1.6c0-1.6-0.6-2.2-2.1-2.2
	c-1.6,0-2.2,0.6-2.2,2.2v0.8c0,1.1,0.5,1.6,2,2.3l1.3,0.6C139.4,98.3,140.1,99.1,140.1,101z M135.7,97.3c-1.6-0.7-2.2-1.3-2.2-2.8
	C133.5,96,134.1,96.6,135.7,97.3z"/>
</svg>
