<?xml version="1.0" encoding="utf-8"?>
<!-- Generator: Adobe Illustrator 24.0.1, SVG Export Plug-In . SVG Version: 6.00 Build 0)  -->
<svg version="1.1" id="Livello_1" xmlns="http://www.w3.org/2000/svg" xmlns:xlink="http://www.w3.org/1999/xlink" x="0px" y="0px"
	 viewBox="0 0 193.55 225.67" style="enable-background:new 0 0 193.55 225.67;" xml:space="preserve">
<style type="text/css">
	.st0{fill-rule:evenodd;clip-rule:evenodd;}
</style>
<path class="st0" d="M151.34,130.58c10.87-7.04,27.92-17.96,34.45-34.59c6.3-16.03-4.07-29.74-11.42-31.88
	c-10.07-2.92-31.23,3.54-41.58,22.29c-6,10.88-9.14,15.25-10.06,39.56l-40.09-19.14c-0.98-0.5-1.51-1.81-1.5-2.66l-0.05-12.18
	c0.01-0.86,0.17-1.74,1.26-2.57c4.72-3.14,19.37-11.63,34.29-34.39c19.89-30.31-0.78-55.26-32.41-47.95
	c-28.09,6.5-56.57,22.36-68.9,30.94c-10.99,7.65-9.32,16.68-9.51,24.8c0.66,3.42,1.89,3.1,4.62-0.38
	C30.81,42.8,62.03,27.68,67.85,25.11c5.82-2.58,19.57-11.21,35.95-7.68c15.73,3.38,12.22,25.04,7.56,34.24
	c-5.1,10.06-19.84,24.79-26.57,28.47c-2.56,1.4-3.54,0.05-3.57-2.14l0.42-47c-0.04-3.12-1.45-4.51-4.51-3.37l-4.89,2.57
	c-3.36,2.08-3.2,2.86-3.47,5.36l0.01,54.18c-0.01,1.18-0.53,2.12-1.17,2.4l-15.95,9.39c-3.67,1.93-2.71,4.72,0.08,5.62l13.03,6.06
	c3.09,1.21,4.03,2.13,4.08,5.25l-0.09,26.23c11.52-2.5,12.21-8.13,12.46-11.88l-0.11-7.97c0.28-1.87,1.35-2.52,2.9-2.22l37.84,17.89
	c0.2,0.09,0.4,0.17,0.59,0.24c-0.05,4.79-0.08,9.99,0,15.55c0.11,7.75-0.51,28.77-1.37,32.74c-3.35,9.35,7,3.69,11.7,0.01
	c4.71-3.68,4.26-9.1,4.23-11.42c-0.04-2.93-0.58-54.59,0.9-66.15c0.92-7.19,1.91-20.52,9.79-32.18c7.89-11.65,16.19-7.11,18.4-5.25
	c2.22,1.86,5.4,6.64,3.89,16.48c-2.34,15.27-20.77,32.15-25.45,37.38c-4.68,5.24-3.52,9.7-0.73,13.27
	c1.99,2.55,6.87,7.48,11.87,12.06c5.01,4.58,4.52,8.72,3.83,11.83c-2.44,9.33-28.78,34.85-28.78,34.85
	c-5.59,5.76,0.39,14.97,2.45,18.04c2.06,3.08,4.6,2.01,6.21-0.6c6.42-11.63,34.38-39.92,34.38-39.92
	c8.09-9.93,4.48-19.36-3.09-24.58c0,0-15.69-10.46-20.15-15.22C147.54,134.45,149.54,131.98,151.34,130.58z"/>
</svg>
