<?xml version="1.0" encoding="utf-8"?>
<!-- Generator: Adobe Illustrator 24.0.1, SVG Export Plug-In . SVG Version: 6.00 Build 0)  -->
<svg version="1.1" id="Capa_1" xmlns="http://www.w3.org/2000/svg" xmlns:xlink="http://www.w3.org/1999/xlink" x="0px" y="0px"
	 viewBox="0 0 512 512" style="enable-background:new 0 0 512 512;" xml:space="preserve">
<path d="M376,30c-27.8,0-53.3,8.8-75.7,26.2C278.8,72.8,264.4,94,256,109.4c-8.4-15.4-22.8-36.6-44.3-53.3
	C189.3,38.8,163.8,30,136,30C58.5,30,0,93.4,0,177.5c0,90.9,72.9,153,183.4,247.1c18.8,16,40,34.1,62.1,53.4c2.9,2.5,6.7,4,10.5,4
	s7.6-1.4,10.5-4c22.1-19.3,43.3-37.4,62.1-53.4C439.1,330.5,512,268.4,512,177.5C512,93.4,453.5,30,376,30z M345.8,249.1
	c-7.9,20-28.4,33.2-41.5,41.7c-2.2,1.7-4.6,4.7-1,8.5c5.4,5.7,24.3,18.3,24.3,18.3c9.1,6.3,13.5,17.7,3.7,29.6
	c0,0-33.7,34.1-41.4,48.1c-1.9,3.1-5,4.4-7.5,0.7c-2.5-3.7-9.7-14.8-3-21.7c0,0,31.7-30.8,34.7-42c0.8-3.7,1.4-8.7-4.6-14.3
	c-6-5.5-11.9-11.5-14.3-14.5c-3.4-4.3-4.8-9.7,0.9-16c5.6-6.3,27.8-26.6,30.7-45c1.8-11.9-2-17.6-4.7-19.9
	c-2.7-2.2-12.7-7.7-22.2,6.3c-9.5,14.1-10.7,30.1-11.8,38.8c-1.8,13.9-1.1,76.2-1.1,79.7c0,2.8,0.6,9.3-5.1,13.8
	c-5.7,4.4-18.1,11.3-14.1,0c1-4.8,1.8-30.1,1.7-39.5c-0.1-6.7-0.1-13,0-18.7c-0.2-0.1-0.5-0.2-0.7-0.3l-45.6-21.6
	c-1.9-0.4-3.2,0.4-3.5,2.7l0.1,9.6c-0.3,4.5-1.1,11.3-15,14.3l0.1-31.6c-0.1-3.8-1.2-4.9-4.9-6.3l-15.7-7.3
	c-3.4-1.1-4.5-4.4-0.1-6.8l19.2-11.3c0.8-0.3,1.4-1.5,1.4-2.9l0-65.3c0.3-3,0.1-4,4.2-6.5l5.9-3.1c3.7-1.4,5.4,0.3,5.4,4.1
	l-0.5,56.6c0,2.6,1.2,4.3,4.3,2.6c8.1-4.4,25.9-22.2,32-34.3c5.6-11.1,9.8-37.2-9.1-41.3c-19.7-4.3-36.3,6.1-43.3,9.3
	c-7,3.1-44.6,21.3-69.2,45c-3.3,4.2-4.8,4.6-5.6,0.5c0.2-9.8-1.8-20.7,11.5-29.9c14.9-10.3,49.2-29.5,83-37.3
	c38.1-8.8,63,21.3,39.1,57.8c-18,27.4-35.6,37.7-41.3,41.4c-1.3,1-1.5,2.1-1.5,3.1l0.1,14.7c0,1,0.6,2.6,1.8,3.2l48.3,23.1
	c1.1-29.3,4.9-34.6,12.1-47.7c12.5-22.6,38-30.4,50.1-26.9C340.9,213.3,353.4,229.8,345.8,249.1z"/>
</svg>
